<svg width="121" height="33" viewBox="0 0 121 33" fill="none" xmlns="http://www.w3.org/2000/svg">
<path fill-rule="evenodd" clip-rule="evenodd" d="M34.6988 25H40.1388V13.576C40.1388 12.8053 40.0708 12.0177 39.9348 11.213C39.7988 10.4083 39.5324 9.683 39.1357 9.03699C38.7391 8.39099 38.1724 7.85833 37.4358 7.43899C36.6991 7.01966 35.7301 6.80999 34.5288 6.80999C33.2367 6.80999 32.0524 7.09899 30.9758 7.67699C29.8991 8.255 29.0321 9.07665 28.3748 10.142V0.179993H22.9348V25H28.3748V14.766C28.5334 14.29 28.7601 13.8593 29.0548 13.474C29.3494 13.0887 29.6724 12.7543 30.0238 12.471C30.3751 12.1877 30.7377 11.9723 31.1118 11.825C31.4858 11.6777 31.8314 11.604 32.1488 11.604C32.9421 11.604 33.5654 11.876 34.0188 12.42C34.4721 12.964 34.6988 13.814 34.6988 14.97V25ZM16.0006 7.42199C16.4086 7.67133 16.6466 7.84133 16.7146 7.93199L19.1626 3.30799C18.6186 2.99066 18.0236 2.67333 17.3776 2.35599C16.7316 2.03866 16.0346 1.75533 15.2866 1.50599C14.5386 1.25666 13.7566 1.05266 12.9406 0.893993C12.1246 0.735325 11.2973 0.655993 10.4586 0.655993C9.2573 0.655993 8.11831 0.825991 7.04164 1.16599C5.96497 1.50599 5.01864 2.01032 4.20264 2.67899C3.38664 3.34766 2.74064 4.16932 2.26464 5.14399C1.78864 6.11866 1.55064 7.24065 1.55064 8.50999C1.55064 9.41666 1.68097 10.21 1.94164 10.89C2.20231 11.57 2.59897 12.1707 3.13164 12.692C3.66431 13.2133 4.33864 13.6723 5.15464 14.069C5.97064 14.4657 6.93397 14.834 8.04464 15.174C8.38011 15.2737 8.7056 15.3698 9.02112 15.4623L10.7226 15.9574C11.2909 16.1321 11.7922 16.3187 12.2266 16.517C12.748 16.755 13.156 17.0213 13.4506 17.316C13.7453 17.6107 13.8926 17.9847 13.8926 18.438C13.8926 19.6393 12.9066 20.24 10.9346 20.24C10.0053 20.24 9.08731 20.1153 8.18064 19.866C7.27397 19.6167 6.45231 19.3333 5.71564 19.016C4.97897 18.6987 4.36131 18.3813 3.86264 18.064C3.36397 17.7467 3.06931 17.5313 2.97864 17.418L0.53064 22.28C1.23331 22.756 1.9983 23.1753 2.82564 23.538C3.65298 23.9007 4.50864 24.2123 5.39264 24.473C6.27664 24.7337 7.1833 24.932 8.11264 25.068C9.04198 25.204 9.94864 25.272 10.8326 25.272C11.9886 25.272 13.1106 25.1417 14.1986 24.881C15.2866 24.6203 16.25 24.201 17.0886 23.623C17.9273 23.045 18.6016 22.2857 19.1116 21.345C19.6216 20.4043 19.8766 19.254 19.8766 17.894C19.8766 16.7833 19.701 15.8313 19.3496 15.038C18.9983 14.2447 18.4996 13.5703 17.8536 13.015C17.2076 12.4597 16.42 11.995 15.4906 11.621C14.5613 11.247 13.5186 10.9013 12.3626 10.584C12.0831 10.5084 11.8149 10.4354 11.558 10.3649L10.1526 9.97199C9.51797 9.79066 8.99098 9.59233 8.57164 9.37699C8.1523 9.16166 7.83497 8.91799 7.61964 8.64599C7.40431 8.37399 7.29664 8.03399 7.29664 7.62599C7.29664 6.28865 8.29396 5.61999 10.2886 5.61999C11.014 5.61999 11.7393 5.72199 12.4646 5.92599C13.19 6.12999 13.8586 6.36799 14.4706 6.63999C15.0826 6.91199 15.5926 7.17266 16.0006 7.42199ZM52.4789 25.34C50.9602 25.34 49.6059 25.0907 48.4159 24.592C47.2259 24.0933 46.2229 23.419 45.4069 22.569C44.5909 21.719 43.9732 20.733 43.5539 19.611C43.1345 18.489 42.9249 17.316 42.9249 16.092C42.9249 14.868 43.1345 13.695 43.5539 12.573C43.9732 11.451 44.5909 10.465 45.4069 9.61499C46.2229 8.76499 47.2259 8.085 48.4159 7.57499C49.6059 7.06499 50.9602 6.80999 52.4789 6.80999C53.9975 6.80999 55.3462 7.06499 56.5249 7.57499C57.7035 8.085 58.7009 8.76499 59.5169 9.61499C60.3329 10.465 60.9562 11.451 61.3869 12.573C61.8175 13.695 62.0329 14.868 62.0329 16.092C62.0329 17.316 61.8232 18.489 61.4039 19.611C60.9845 20.733 60.3669 21.719 59.5509 22.569C58.7349 23.419 57.7319 24.0933 56.5419 24.592C55.3519 25.0907 53.9975 25.34 52.4789 25.34ZM49.6229 19.475C48.8749 18.625 48.5009 17.4973 48.5009 16.092C48.5009 15.412 48.6029 14.783 48.8069 14.205C49.0109 13.627 49.2885 13.134 49.6399 12.726C49.9912 12.318 50.4105 12.0007 50.8979 11.774C51.3852 11.5473 51.9122 11.434 52.4789 11.434C53.6122 11.434 54.5529 11.859 55.3009 12.709C56.0489 13.559 56.4229 14.6867 56.4229 16.092C56.4229 16.772 56.3209 17.401 56.1169 17.979C55.9129 18.557 55.6352 19.05 55.2839 19.458C54.9325 19.866 54.5189 20.1833 54.0429 20.41C53.5669 20.6367 53.0455 20.75 52.4789 20.75C51.3229 20.75 50.3709 20.325 49.6229 19.475ZM76.277 11.808C74.9623 11.8307 73.7723 12.046 72.707 12.454C71.6416 12.862 70.871 13.474 70.395 14.29V25H64.955V7.14999H69.953V10.754C70.565 9.55265 71.3526 8.612 72.316 7.93199C73.2793 7.25199 74.305 6.90066 75.393 6.87799H75.937C76.0503 6.87799 76.1636 6.88933 76.277 6.91199V11.808ZM87.7841 24.932C88.7474 24.66 89.6031 24.3653 90.3511 24.048L89.2971 19.73C88.9798 19.8887 88.6058 20.036 88.1751 20.172C87.7444 20.308 87.3251 20.376 86.9171 20.376C86.4638 20.376 86.0898 20.2457 85.7951 19.985C85.5004 19.7243 85.3531 19.2993 85.3531 18.71V11.264H88.9911V7.14999H85.3531V1.47199H79.9131V7.14999H77.6351V11.264H79.9131V20.58C79.9131 21.4413 80.0434 22.178 80.3041 22.79C80.5648 23.402 80.9218 23.895 81.3751 24.269C81.8284 24.643 82.3554 24.915 82.9561 25.085C83.5568 25.255 84.1971 25.34 84.8771 25.34C85.8518 25.34 86.8207 25.204 87.7841 24.932ZM92.6272 0.179993H98.0672V18.642C98.0672 20.002 98.6452 20.682 99.8012 20.682C100.073 20.682 100.374 20.6423 100.702 20.563C101.031 20.4837 101.331 20.3647 101.603 20.206L102.317 24.286C101.637 24.6033 100.855 24.8527 99.9712 25.034C99.0872 25.2153 98.2599 25.306 97.4892 25.306C95.9252 25.306 94.7239 24.898 93.8852 24.082C93.0465 23.266 92.6272 22.0873 92.6272 20.546V0.179993ZM105.358 28.026C104.962 27.958 104.537 27.8447 104.083 27.686V32.344C104.559 32.5253 105.03 32.6557 105.494 32.735C105.959 32.8143 106.418 32.854 106.871 32.854C108.549 32.854 109.999 32.395 111.223 31.477C112.447 30.559 113.297 29.3633 113.773 27.89L120.573 7.14999H115.473L111.903 20.342L107.755 7.14999H102.145L108.945 25C108.651 26.1787 108.322 26.9947 107.959 27.448C107.597 27.9013 107.087 28.128 106.429 28.128C106.112 28.128 105.755 28.094 105.358 28.026Z" fill="white"/>
</svg>
